<svg width="82" height="81" viewBox="0 0 82 81" fill="none" xmlns="http://www.w3.org/2000/svg">
<rect width="57.6157" height="57.6203" transform="matrix(0.709031 -0.705177 0.713521 0.700634 0 40.6293)" fill="#F25379"/>
<path d="M41.5172 20.7729C40.9314 20.1871 39.9817 20.1871 39.3959 20.7729L29.8499 30.3188C29.2642 30.9046 29.2642 31.8544 29.8499 32.4402C30.4357 33.0259 31.3855 33.0259 31.9713 32.4402L40.4565 23.9549L48.9418 32.4402C49.5276 33.0259 50.4774 33.0259 51.0631 32.4402C51.6489 31.8544 51.6489 30.9046 51.0631 30.3188L41.5172 20.7729ZM38.9565 47.2271C38.9565 48.0555 39.6281 48.7271 40.4565 48.7271C41.285 48.7271 41.9565 48.0555 41.9565 47.2271L38.9565 47.2271ZM38.9565 21.8336L38.9565 47.2271L41.9565 47.2271L41.9565 21.8336L38.9565 21.8336Z" fill="white"/>
<path d="M28.2153 55.6916H52.6982" stroke="white" stroke-width="3" stroke-linecap="round"/>
<path d="M29.7153 48.4363C29.7153 47.6079 29.0438 46.9363 28.2153 46.9363C27.3869 46.9363 26.7153 47.6079 26.7153 48.4363H29.7153ZM29.7153 55.6916V48.4363H26.7153V55.6916H29.7153Z" fill="white"/>
<path d="M54.1982 48.4363C54.1982 47.6079 53.5267 46.9363 52.6982 46.9363C51.8698 46.9363 51.1982 47.6079 51.1982 48.4363H54.1982ZM54.1982 55.6916V48.4363H51.1982V55.6916H54.1982Z" fill="white"/>
</svg>
