<svg width="79" height="79" viewBox="0 0 79 79" fill="none" xmlns="http://www.w3.org/2000/svg">
<rect width="55.8496" height="55.8497" transform="matrix(0.704998 -0.70921 0.709514 0.704691 0 39.6091)" fill="#F25379"/>
<path d="M23.6688 38.9055C23.1075 39.5148 23.1463 40.4637 23.7556 41.0251L33.6837 50.1732C34.293 50.7346 35.2419 50.6958 35.8033 50.0866C36.3646 49.4774 36.3258 48.5284 35.7166 47.967L26.8915 39.8354L35.0229 31.0106C35.5843 30.4014 35.5454 29.4525 34.9362 28.8911C34.3269 28.3297 33.378 28.3685 32.8166 28.9777L23.6688 38.9055ZM49.5845 40.4091C50.4122 40.3753 51.0558 39.6768 51.0219 38.8491C50.9881 38.0213 50.2896 37.3778 49.4619 37.4116L49.5845 40.4091ZM24.8333 41.4207L49.5845 40.4091L49.4619 37.4116L24.7107 38.4233L24.8333 41.4207Z" fill="white"/>
</svg>
